<?xml version="1.0" encoding="utf-8"?>
<!-- Generator: Adobe Illustrator 16.0.0, SVG Export Plug-In . SVG Version: 6.00 Build 0)  -->
<!DOCTYPE svg PUBLIC "-//W3C//DTD SVG 1.1//EN" "http://www.w3.org/Graphics/SVG/1.1/DTD/svg11.dtd">
<svg version="1.1" id="Calque_1" xmlns="http://www.w3.org/2000/svg" xmlns:xlink="http://www.w3.org/1999/xlink" x="0px" y="0px"
	 width="80px" height="59px" viewBox="0 0 80 59" enable-background="new 0 0 80 59" xml:space="preserve">
<rect x="10.5" y="0.059" fill="#6583CE" width="59.118" height="58.941"/>
<path fill="#FFFFFF" d="M60.313,44.02h-3.65h-0.025c-7.562-14.855-6.438-12.65-7.323-14.378c0.229-0.199,0.379-0.448,0.455-0.719
	c0.226-0.793-0.236-1.62-1.029-1.845l-4.974-1.408l-1.734-5.411l2.604,4.105l1.043-2.54c0.467-1.138-0.077-2.439-1.217-2.906
	l-3.675-1.508c-0.755-0.31-1.683,0.064-2.188,0.284c-1.431,0.623-5.677,2.594-5.677,2.594c-0.424,0.193-0.733,0.574-0.836,1.028
	c-0.103,0.455,0.012,0.932,0.311,1.289l1.786,2.133l-0.915,0.398c-0.988,0.43-1.652,1.365-1.732,2.438
	c-0.045,0.602-0.759,10.182-0.803,10.766c-0.047,0.637-0.585,1.135-1.224,1.135h-9.252c-0.677,0-1.228-0.551-1.228-1.228
	c0-0.673,0.548-1.228,1.228-1.228h0.993v1.097h8.506v-4.744c0-0.538-0.436-0.974-0.975-0.974h-6.558
	c-0.537,0-0.974,0.436-0.974,0.974v1.982h-0.993c-1.596,0-2.894,1.298-2.894,2.893c0,0.012,0.001,0.022,0.001,0.034
	c0.017,1.581,1.308,2.86,2.893,2.86h9.252c1.505,0,2.773-1.177,2.885-2.679c0.035-0.468,0.755-10.129,0.803-10.764
	c0.034-0.457,0.315-0.852,0.734-1.035l0.793-0.344l-0.824,2.008c-0.196,0.457-0.419,1.151-0.115,1.774l3.587,7.037l-2.449,7.208
	c-0.31,0.911,0.178,1.899,1.088,2.209c0.911,0.308,1.898-0.178,2.208-1.089l2.685-7.903c0.151-0.445,0.117-0.932-0.096-1.351
	l-2.6-5.099l0.535,0.075l3.008,5.8l-0.84,7.729c-0.104,0.955,0.586,1.814,1.541,1.919c0.953,0.103,1.814-0.585,1.919-1.543
	l0.901-8.29c0.041-0.363-0.037-0.73-0.218-1.049l-2.961-5.193l0,0l0.284-0.691l-0.587-0.166c-1.28-0.364-1.996-1.512-2.055-2.248
	L39.25,21.37l1.917,5.975c0.15,0.474,0.529,0.844,1.015,0.981l5.249,1.488c1.114,2.171-0.045-0.103,7.236,14.205h-1.821
	c-0.728,0-1.315,0.588-1.315,1.313c0,0.729,0.588,1.316,1.315,1.316h7.468c0.728,0,1.315-0.588,1.315-1.316
	C61.63,44.606,61.042,44.02,60.313,44.02z M36.264,22.57l-0.316-0.378l0.58-0.265L36.264,22.57z"/>
<path fill="#FFFFFF" d="M25.896,26.689h-0.786c-2.131,0-3.86,1.728-3.86,3.858c0,0.539,0.437,0.975,0.974,0.975h6.558
	c0.539,0,0.975-0.436,0.975-0.975C29.756,28.417,28.028,26.689,25.896,26.689z"/>
<path fill="#FFFFFF" d="M21.251,42.708v0.762l0,0c0,0.499,0.377,0.909,0.862,0.966c-0.102,0.205-0.161,0.435-0.161,0.68
	c0,0.847,0.688,1.534,1.535,1.534c0.848,0,1.535-0.688,1.535-1.534c0-0.243-0.057-0.468-0.156-0.672h1.276
	c-0.099,0.204-0.156,0.429-0.156,0.672c0,0.847,0.687,1.534,1.535,1.534s1.534-0.688,1.534-1.534c0-0.245-0.059-0.475-0.16-0.68
	c0.485-0.057,0.861-0.467,0.861-0.966v-0.762H21.251z M23.487,45.685c-0.314,0-0.57-0.256-0.57-0.569
	c0-0.315,0.256-0.571,0.57-0.571c0.314,0,0.57,0.256,0.57,0.571C24.057,45.429,23.801,45.685,23.487,45.685z M27.521,45.685
	c-0.314,0-0.57-0.256-0.57-0.569c0-0.315,0.256-0.571,0.57-0.571s0.569,0.256,0.569,0.571C28.09,45.429,27.835,45.685,27.521,45.685
	z"/>
<circle fill="#FFFFFF" cx="44.859" cy="14.228" r="3.298"/>
</svg>
